<svg xmlns="http://www.w3.org/2000/svg" width="375" viewBox="0 0 375 375" height="375" version="1.0"><defs><clipPath id="a"><path d="M 159 10.128906 L 216 10.128906 L 216 41 L 159 41 Z M 159 10.128906"/></clipPath><clipPath id="b"><path d="M 159 10.128906 L 216 10.128906 L 216 41 L 159 41 Z M 159 10.128906"/></clipPath><clipPath id="c"><path d="M 187 314 L 216 314 L 216 364.878906 L 187 364.878906 Z M 187 314"/></clipPath><clipPath id="d"><path d="M 187 314 L 216 314 L 216 364.878906 L 187 364.878906 Z M 187 314"/></clipPath><clipPath id="e"><path d="M 159 314 L 188 314 L 188 364.878906 L 159 364.878906 Z M 159 314"/></clipPath><clipPath id="f"><path d="M 296 78 L 352.460938 78 L 352.460938 109 L 296 109 Z M 296 78"/></clipPath><clipPath id="g"><path d="M 324.050781 93.476562 L 352.460938 93.476562 L 352.460938 143.253906 L 324.050781 143.253906 Z M 324.050781 93.476562"/></clipPath><clipPath id="h"><path d="M 296 78 L 352.460938 78 L 352.460938 109 L 296 109 Z M 296 78"/></clipPath><clipPath id="i"><path d="M 324.050781 93.476562 L 352.460938 93.476562 L 352.460938 143.253906 L 324.050781 143.253906 Z M 324.050781 93.476562"/></clipPath><clipPath id="j"><path d="M 22.542969 78 L 79 78 L 79 109 L 22.542969 109 Z M 22.542969 78"/></clipPath><clipPath id="k"><path d="M 22.542969 78 L 79 78 L 79 109 L 22.542969 109 Z M 22.542969 78"/></clipPath><clipPath id="l"><path d="M 22.542969 93 L 51 93 L 51 144 L 22.542969 144 Z M 22.542969 93"/></clipPath><clipPath id="m"><path d="M 296 231.75 L 352.460938 231.75 L 352.460938 262 L 296 262 Z M 296 231.75"/></clipPath><clipPath id="n"><path d="M 324.050781 246 L 352.460938 246 L 352.460938 297 L 324.050781 297 Z M 324.050781 246"/></clipPath><clipPath id="o"><path d="M 296 231.75 L 352.460938 231.75 L 352.460938 262 L 296 262 Z M 296 231.75"/></clipPath><clipPath id="p"><path d="M 324.050781 246 L 352.460938 246 L 352.460938 297 L 324.050781 297 Z M 324.050781 246"/></clipPath><clipPath id="q"><path d="M 22.542969 231 L 79 231 L 79 262 L 22.542969 262 Z M 22.542969 231"/></clipPath><clipPath id="r"><path d="M 22.542969 231 L 79 231 L 79 262 L 22.542969 262 Z M 22.542969 231"/></clipPath><clipPath id="s"><path d="M 22.542969 246 L 51 246 L 51 297 L 22.542969 297 Z M 22.542969 246"/></clipPath><clipPath id="t"><path d="M 22.542969 72.808594 L 86.292969 72.808594 L 86.292969 144.808594 L 22.542969 144.808594 Z M 22.542969 72.808594"/></clipPath><clipPath id="u"><path d="M 156 10.128906 L 219 10.128906 L 219 43 L 156 43 Z M 156 10.128906"/></clipPath><clipPath id="v"><path d="M 155.566406 10.128906 L 219.316406 10.128906 L 219.316406 82.128906 L 155.566406 82.128906 Z M 155.566406 10.128906"/></clipPath><clipPath id="w"><path d="M 288.589844 72.808594 L 352.339844 72.808594 L 352.339844 144.808594 L 288.589844 144.808594 Z M 288.589844 72.808594"/></clipPath><clipPath id="x"><path d="M 289 229.09375 L 352 229.09375 L 352 262 L 289 262 Z M 289 229.09375"/></clipPath><clipPath id="y"><path d="M 288.589844 229.09375 L 352.339844 229.09375 L 352.339844 301.09375 L 288.589844 301.09375 Z M 288.589844 229.09375"/></clipPath><clipPath id="z"><path d="M 156 293.1875 L 219 293.1875 L 219 326 L 156 326 Z M 156 293.1875"/></clipPath><clipPath id="A"><path d="M 155.566406 293.1875 L 219.316406 293.1875 L 219.316406 365.1875 L 155.566406 365.1875 Z M 155.566406 293.1875"/></clipPath><clipPath id="B"><path d="M 23 229.09375 L 86 229.09375 L 86 262 L 23 262 Z M 23 229.09375"/></clipPath><clipPath id="C"><path d="M 22.542969 229.09375 L 86.292969 229.09375 L 86.292969 301.09375 L 22.542969 301.09375 Z M 22.542969 229.09375"/></clipPath><clipPath id="D"><path d="M 93.476562 110 L 280 110 L 280 246 L 93.476562 246 Z M 93.476562 110"/></clipPath><clipPath id="E"><path d="M 93.476562 109.746094 L 280 109.746094 L 280 246 L 93.476562 246 Z M 93.476562 109.746094"/></clipPath><clipPath id="F"><path d="M 98 114 L 279 114 L 279 247.746094 L 98 247.746094 Z M 98 114"/></clipPath><clipPath id="G"><path d="M 98 113 L 279 113 L 279 247.746094 L 98 247.746094 Z M 98 113"/></clipPath><clipPath id="H"><path d="M 105 122 L 281.726562 122 L 281.726562 247.746094 L 105 247.746094 Z M 105 122"/></clipPath></defs><path fill="#4834D4" d="M 195.730469 185.492188 L 316.261719 117.945312 L 316.261719 253.042969 L 195.730469 185.492188 M 191.527344 192.351562 L 311.972656 259.859375 L 191.527344 325.535156 L 191.527344 192.351562 M 183.476562 192.351562 L 183.476562 325.535156 L 63.042969 259.859375 L 183.476562 192.351562 M 179.273438 185.492188 L 58.753906 253.042969 L 58.753906 117.945312 L 179.273438 185.492188 M 183.476562 178.621094 L 62.878906 111.03125 L 183.476562 41.605469 L 183.476562 178.621094 M 191.527344 41.605469 L 312.132812 111.03125 L 191.527344 178.621094 L 191.527344 41.605469 M 187.507812 30.011719 L 50.703125 108.753906 L 50.703125 262.289062 L 187.507812 336.890625 L 324.300781 262.289062 L 324.300781 108.753906 L 187.507812 30.011719"/><path fill="#26476B" d="M 243.835938 152.847656 L 187.507812 123.140625 L 131.179688 152.847656 L 187.507812 182.554688 L 243.835938 152.847656"/><path fill="#26476B" d="M 187.507812 182.554688 L 187.507812 251.863281 L 243.835938 222.15625 L 243.835938 152.847656 L 187.507812 182.554688"/><path fill="#38B6FF" d="M 187.507812 182.554688 L 131.179688 152.847656 L 187.507812 123.140625 L 243.835938 152.847656 L 187.507812 182.554688"/><path fill="#5E17EB" d="M 187.507812 251.863281 L 187.507812 182.554688 L 243.835938 152.847656 L 243.835938 222.15625 L 187.507812 251.863281"/><path fill="#26476B" d="M 131.179688 152.847656 L 131.179688 222.15625 L 187.507812 251.863281 L 187.507812 182.554688 L 131.179688 152.847656"/><g clip-path="url(#a)"><path fill="#26476B" d="M 215.664062 25.367188 L 187.507812 10.515625 L 159.335938 25.367188 L 187.507812 40.222656 L 215.664062 25.367188"/></g><path fill="#26476B" d="M 187.507812 40.222656 L 187.507812 74.875 L 215.664062 60.023438 L 215.664062 25.367188 L 187.507812 40.222656"/><g clip-path="url(#b)"><path fill="#38B6FF" d="M 187.507812 40.222656 L 159.335938 25.367188 L 187.507812 10.515625 L 215.664062 25.367188 L 187.507812 40.222656"/></g><path fill="#5E17EB" d="M 187.507812 74.875 L 187.507812 40.222656 L 215.664062 25.367188 L 215.664062 60.023438 L 187.507812 74.875"/><path fill="#26476B" d="M 159.335938 25.367188 L 159.335938 60.023438 L 187.507812 74.875 L 187.507812 40.222656 L 159.335938 25.367188"/><path fill="#26476B" d="M 215.664062 314.984375 L 187.507812 300.128906 L 159.335938 314.984375 L 187.507812 329.835938 L 215.664062 314.984375"/><g clip-path="url(#c)"><path fill="#26476B" d="M 187.507812 329.835938 L 187.507812 364.492188 L 215.664062 349.636719 L 215.664062 314.984375 L 187.507812 329.835938"/></g><path fill="#38B6FF" d="M 187.507812 329.835938 L 159.335938 314.984375 L 187.507812 300.128906 L 215.664062 314.984375 L 187.507812 329.835938"/><g clip-path="url(#d)"><path fill="#5E17EB" d="M 187.507812 364.492188 L 187.507812 329.835938 L 215.664062 314.984375 L 215.664062 349.636719 L 187.507812 364.492188"/></g><g clip-path="url(#e)"><path fill="#26476B" d="M 159.335938 314.984375 L 159.335938 349.636719 L 187.507812 364.492188 L 187.507812 329.835938 L 159.335938 314.984375"/></g><g clip-path="url(#f)"><path fill="#26476B" d="M 352.46875 93.746094 L 324.300781 78.894531 L 296.144531 93.746094 L 324.300781 108.601562 L 352.46875 93.746094"/></g><g clip-path="url(#g)"><path fill="#26476B" d="M 324.300781 108.601562 L 324.300781 143.253906 L 352.46875 128.402344 L 352.46875 93.746094 L 324.300781 108.601562"/></g><g clip-path="url(#h)"><path fill="#38B6FF" d="M 324.300781 108.601562 L 321.167969 106.949219 L 296.144531 93.746094 L 324.300781 78.894531 L 352.46875 93.746094 L 324.300781 108.601562"/></g><g clip-path="url(#i)"><path fill="#5E17EB" d="M 324.300781 143.253906 L 324.300781 108.601562 L 352.46875 93.746094 L 352.46875 128.402344 L 324.300781 143.253906"/></g><path fill="#26476B" d="M 296.144531 93.746094 L 296.144531 128.402344 L 324.300781 143.253906 L 324.300781 108.601562 L 296.144531 93.746094"/><g clip-path="url(#j)"><path fill="#26476B" d="M 78.871094 93.746094 L 50.703125 78.894531 L 22.542969 93.746094 L 50.703125 108.601562 L 78.871094 93.746094"/></g><path fill="#26476B" d="M 50.703125 108.601562 L 50.703125 143.253906 L 78.871094 128.402344 L 78.871094 93.746094 L 50.703125 108.601562"/><g clip-path="url(#k)"><path fill="#38B6FF" d="M 50.703125 108.601562 L 22.542969 93.746094 L 50.703125 78.894531 L 78.871094 93.746094 L 50.703125 108.601562"/></g><path fill="#5E17EB" d="M 50.703125 143.253906 L 50.703125 108.601562 L 78.871094 93.746094 L 78.871094 128.402344 L 78.125 128.800781 L 50.703125 143.253906"/><g clip-path="url(#l)"><path fill="#26476B" d="M 22.542969 93.746094 L 22.542969 128.402344 L 50.703125 143.253906 L 50.703125 108.601562 L 22.542969 93.746094"/></g><g clip-path="url(#m)"><path fill="#26476B" d="M 352.46875 246.601562 L 324.300781 231.75 L 296.144531 246.601562 L 324.300781 261.457031 L 352.46875 246.601562"/></g><g clip-path="url(#n)"><path fill="#26476B" d="M 324.300781 261.457031 L 324.300781 296.109375 L 352.46875 281.257812 L 352.46875 246.601562 L 324.300781 261.457031"/></g><g clip-path="url(#o)"><path fill="#38B6FF" d="M 324.300781 261.457031 L 296.144531 246.601562 L 324.300781 231.75 L 352.46875 246.601562 L 324.300781 261.457031"/></g><g clip-path="url(#p)"><path fill="#5E17EB" d="M 324.300781 296.109375 L 324.300781 261.457031 L 352.46875 246.601562 L 352.46875 281.257812 L 324.300781 296.109375"/></g><path fill="#26476B" d="M 296.144531 246.601562 L 296.144531 281.257812 L 324.300781 296.109375 L 324.300781 261.457031 L 296.144531 246.601562"/><g clip-path="url(#q)"><path fill="#26476B" d="M 78.871094 246.601562 L 50.703125 231.75 L 22.542969 246.601562 L 50.703125 261.457031 L 78.871094 246.601562"/></g><path fill="#26476B" d="M 50.703125 261.457031 L 50.703125 296.109375 L 78.871094 281.257812 L 78.871094 246.601562 L 50.703125 261.457031"/><g clip-path="url(#r)"><path fill="#38B6FF" d="M 50.703125 261.457031 L 22.542969 246.601562 L 50.703125 231.75 L 78.871094 246.601562 L 50.703125 261.457031"/></g><path fill="#5E17EB" d="M 50.703125 296.109375 L 50.703125 261.457031 L 78.871094 246.601562 L 78.871094 281.257812 L 50.703125 296.109375"/><g clip-path="url(#s)"><path fill="#26476B" d="M 22.542969 246.601562 L 22.542969 281.257812 L 50.703125 296.109375 L 50.703125 261.457031 L 22.542969 246.601562"/></g><path fill="#FFF" d="M 102.097656 154.035156 L 255.097656 154.035156 L 255.097656 238.035156 L 102.097656 238.035156 L 102.097656 154.035156"/><path fill="#FFF" d="M 122.96875 124.605469 L 275.96875 124.605469 L 275.96875 247.605469 L 122.96875 247.605469 L 122.96875 124.605469"/><path fill="#FFF" d="M 187.5 168.800781 L 265.5 168.800781 L 265.5 237.800781 L 187.5 237.800781 L 187.5 168.800781"/><path fill="#F9F9F9" d="M 54.417969 73.589844 L 23.371094 89.207031 L 54.417969 104.824219 L 85.464844 89.207031 Z M 54.417969 73.589844"/><path fill="#CCC" d="M 54.417969 104.824219 L 54.417969 143.871094 L 85.464844 128.253906 L 85.464844 89.207031 Z M 54.417969 104.824219"/><path d="M 54.417969 104.824219 L 54.417969 143.871094 L 23.371094 128.253906 L 23.371094 89.207031 Z M 54.417969 104.824219"/><g clip-path="url(#t)"><path transform="matrix(1.55239 0 0 1.56182 7.847 69.9)" fill="none" d="M 29.999509 2.37546 L 10.000108 12.374798 L 10.000108 37.375645 L 29.999509 47.374982 L 49.998909 37.375645 L 49.998909 12.374798 Z M 29.999509 2.37546" stroke="#4D4D4D"/></g><g clip-path="url(#u)"><path fill="#F9F9F9" d="M 187.441406 10.910156 L 156.394531 26.527344 L 187.441406 42.144531 L 218.492188 26.527344 Z M 187.441406 10.910156"/></g><path fill="#CCC" d="M 187.441406 42.144531 L 187.441406 81.191406 L 218.492188 65.574219 L 218.492188 26.527344 Z M 187.441406 42.144531"/><path d="M 187.441406 42.144531 L 187.441406 81.191406 L 156.394531 65.574219 L 156.394531 26.527344 Z M 187.441406 42.144531"/><g clip-path="url(#v)"><path transform="matrix(1.55239 0 0 1.56182 140.87 7.22)" fill="none" d="M 29.999217 2.375516 L 9.999816 12.374854 L 9.999816 37.3757 L 29.999217 47.375038 L 50.001134 37.3757 L 50.001134 12.374854 Z M 29.999217 2.375516" stroke="#4D4D4D"/></g><path fill="#F9F9F9" d="M 320.464844 73.589844 L 289.417969 89.207031 L 320.464844 104.824219 L 351.515625 89.207031 Z M 320.464844 73.589844"/><path fill="#CCC" d="M 320.464844 104.824219 L 320.464844 143.871094 L 351.515625 128.253906 L 351.515625 89.207031 Z M 320.464844 104.824219"/><path d="M 320.464844 104.824219 L 320.464844 143.871094 L 289.417969 128.253906 L 289.417969 89.207031 Z M 320.464844 104.824219"/><g clip-path="url(#w)"><path transform="matrix(1.55239 0 0 1.56182 273.895 69.9)" fill="none" d="M 29.998928 2.37546 L 9.999527 12.374798 L 9.999527 37.375645 L 29.998928 47.374982 L 50.000845 37.375645 L 50.000845 12.374798 Z M 29.998928 2.37546" stroke="#4D4D4D"/></g><g clip-path="url(#x)"><path fill="#F9F9F9" d="M 320.464844 229.875 L 289.417969 245.492188 L 320.464844 261.109375 L 351.515625 245.492188 Z M 320.464844 229.875"/></g><path fill="#CCC" d="M 320.464844 261.109375 L 320.464844 300.15625 L 351.515625 284.539062 L 351.515625 245.492188 Z M 320.464844 261.109375"/><path d="M 320.464844 261.109375 L 320.464844 300.15625 L 289.417969 284.539062 L 289.417969 245.492188 Z M 320.464844 261.109375"/><g clip-path="url(#y)"><path transform="matrix(1.55239 0 0 1.56182 273.895 226.185)" fill="none" d="M 29.998928 2.375197 L 9.999527 12.374535 L 9.999527 37.375381 L 29.998928 47.374719 L 50.000845 37.375381 L 50.000845 12.374535 Z M 29.998928 2.375197" stroke="#4D4D4D"/></g><g clip-path="url(#z)"><path fill="#F9F9F9" d="M 187.441406 293.96875 L 156.394531 309.585938 L 187.441406 325.207031 L 218.492188 309.585938 Z M 187.441406 293.96875"/></g><path fill="#CCC" d="M 187.441406 325.203125 L 187.441406 364.25 L 218.492188 348.632812 L 218.492188 309.585938 Z M 187.441406 325.203125"/><path d="M 187.441406 325.203125 L 187.441406 364.25 L 156.394531 348.632812 L 156.394531 309.585938 Z M 187.441406 325.203125"/><g clip-path="url(#A)"><path transform="matrix(1.55239 0 0 1.56182 140.87 290.28)" fill="none" d="M 29.999217 2.374774 L 9.999816 12.374112 L 9.999816 37.374958 L 29.999217 47.374296 L 50.001134 37.374958 L 50.001134 12.374112 Z M 29.999217 2.374774" stroke="#4D4D4D"/></g><g clip-path="url(#B)"><path fill="#F9F9F9" d="M 54.417969 229.875 L 23.371094 245.492188 L 54.417969 261.109375 L 85.464844 245.492188 Z M 54.417969 229.875"/></g><path fill="#CCC" d="M 54.417969 261.109375 L 54.417969 300.15625 L 85.464844 284.539062 L 85.464844 245.492188 Z M 54.417969 261.109375"/><path d="M 54.417969 261.109375 L 54.417969 300.15625 L 23.371094 284.539062 L 23.371094 245.492188 Z M 54.417969 261.109375"/><g clip-path="url(#C)"><path transform="matrix(1.55239 0 0 1.56182 7.847 226.185)" fill="none" d="M 29.999509 2.375197 L 10.000108 12.374535 L 10.000108 37.375381 L 29.999509 47.374719 L 49.998909 37.375381 L 49.998909 12.374535 Z M 29.999509 2.375197" stroke="#4D4D4D"/></g><g clip-path="url(#D)"><path fill="#EFEFEF" d="M 265.835938 110.039062 L 279.597656 219.675781 C 279.933594 222.378906 277.867188 224.863281 274.976562 225.222656 L 113.222656 245.425781 C 110.332031 245.785156 107.714844 243.886719 107.375 241.1875 L 93.613281 131.550781 Z M 265.835938 110.039062"/></g><g clip-path="url(#E)"><path fill="#000001" d="M 265.796875 109.746094 L 279.558594 219.382812 C 279.898438 222.085938 277.828125 224.566406 274.9375 224.925781 L 113.183594 245.128906 C 110.292969 245.488281 107.675781 243.59375 107.335938 240.890625 L 93.578125 131.253906 L 265.796875 109.742188 Z M 265.796875 109.746094" fill-opacity=".2"/></g><g clip-path="url(#F)"><path fill="#EFEFEF" d="M 270.453125 114.3125 L 278.300781 231.136719 C 278.496094 234.015625 276.3125 236.503906 273.429688 236.699219 L 111.9375 247.492188 C 109.050781 247.6875 106.554688 245.507812 106.363281 242.628906 L 98.515625 125.808594 L 270.449219 114.316406 Z M 270.453125 114.3125"/></g><g clip-path="url(#G)"><path fill="#000001" d="M 270.433594 114 L 278.28125 230.824219 C 278.476562 233.703125 276.292969 236.1875 273.40625 236.382812 L 111.921875 247.179688 C 109.035156 247.371094 106.539062 245.195312 106.347656 242.316406 L 98.496094 125.492188 L 270.433594 113.996094 Z M 270.433594 114" fill-opacity=".098"/></g><g clip-path="url(#H)"><path fill="#EFEFEF" d="M 281.628906 122.824219 L 281.628906 242.410156 C 281.628906 245.355469 279.234375 247.746094 276.28125 247.746094 L 110.972656 247.746094 C 108.019531 247.746094 105.625 245.355469 105.625 242.410156 L 105.625 122.824219 Z M 281.628906 122.824219"/></g><path fill="#CECECE" d="M 114.820312 130.910156 L 272.542969 130.910156 L 272.542969 153.191406 L 114.820312 153.191406 Z M 114.820312 130.910156"/><path fill="#CECECE" d="M 114.820312 218.558594 L 223.410156 218.558594 L 223.410156 227.335938 L 114.820312 227.335938 Z M 114.820312 218.558594"/><path fill="#CECECE" d="M 228.828125 162.003906 L 272.542969 162.003906 L 272.542969 170.785156 L 228.828125 170.785156 Z M 228.828125 162.003906"/><path fill="#CECECE" d="M 228.828125 175.136719 L 272.542969 175.136719 L 272.542969 177.820312 L 228.828125 177.820312 Z M 228.828125 175.136719"/><path fill="#CECECE" d="M 228.828125 179.347656 L 272.542969 179.347656 L 272.542969 182.027344 L 228.828125 182.027344 Z M 228.828125 179.347656"/><path fill="#CECECE" d="M 228.828125 183.382812 L 272.542969 183.382812 L 272.542969 186.0625 L 228.828125 186.0625 Z M 228.828125 183.382812"/><path fill="#CECECE" d="M 114.820312 231.570312 L 147.402344 231.570312 L 147.402344 234.253906 L 114.820312 234.253906 Z M 114.820312 231.570312"/><path fill="#CECECE" d="M 114.820312 235.78125 L 147.402344 235.78125 L 147.402344 238.460938 L 114.820312 238.460938 Z M 114.820312 235.78125"/><path fill="#CECECE" d="M 114.820312 239.816406 L 147.402344 239.816406 L 147.402344 242.496094 L 114.820312 242.496094 Z M 114.820312 239.816406"/><path fill="#CECECE" d="M 152.867188 231.570312 L 185.449219 231.570312 L 185.449219 234.253906 L 152.867188 234.253906 Z M 152.867188 231.570312"/><path fill="#CECECE" d="M 152.867188 235.78125 L 185.449219 235.78125 L 185.449219 238.460938 L 152.867188 238.460938 Z M 152.867188 235.78125"/><path fill="#CECECE" d="M 152.867188 239.816406 L 185.449219 239.816406 L 185.449219 242.496094 L 152.867188 242.496094 Z M 152.867188 239.816406"/><path fill="#CECECE" d="M 190.828125 231.570312 L 223.414062 231.570312 L 223.414062 234.253906 L 190.828125 234.253906 Z M 190.828125 231.570312"/><path fill="#CECECE" d="M 190.828125 235.78125 L 223.414062 235.78125 L 223.414062 238.460938 L 190.828125 238.460938 Z M 190.828125 235.78125"/><path fill="#CECECE" d="M 190.828125 239.816406 L 223.414062 239.816406 L 223.414062 242.496094 L 190.828125 242.496094 Z M 190.828125 239.816406"/><path fill="#CECECE" d="M 228.828125 187.589844 L 272.542969 187.589844 L 272.542969 190.273438 L 228.828125 190.273438 Z M 228.828125 187.589844"/><path fill="#CECECE" d="M 228.828125 191.464844 L 272.542969 191.464844 L 272.542969 194.148438 L 228.828125 194.148438 Z M 228.828125 191.464844"/><path fill="#CECECE" d="M 228.828125 195.675781 L 272.542969 195.675781 L 272.542969 198.355469 L 228.828125 198.355469 Z M 228.828125 195.675781"/><path fill="#CECECE" d="M 228.828125 199.710938 L 272.542969 199.710938 L 272.542969 202.390625 L 228.828125 202.390625 Z M 228.828125 199.710938"/><path fill="#CECECE" d="M 228.828125 203.917969 L 272.542969 203.917969 L 272.542969 206.601562 L 228.828125 206.601562 Z M 228.828125 203.917969"/><path fill="#CECECE" d="M 228.828125 240.363281 L 272.542969 240.363281 L 272.542969 243.042969 L 228.828125 243.042969 Z M 228.828125 240.363281"/><path fill="#5B5B5B" d="M 114.820312 162.269531 L 223.410156 162.269531 L 223.410156 214.9375 L 114.820312 214.9375 Z M 114.820312 162.269531"/><path fill="#5B5B5B" d="M 228.828125 210.546875 L 272.542969 210.546875 L 272.542969 238.621094 L 228.828125 238.621094 Z M 228.828125 210.546875"/><path fill="#5B5B5B" d="M 114.820312 157.917969 L 272.542969 157.917969 L 272.542969 158.929688 L 114.820312 158.929688 Z M 114.820312 157.917969"/><path fill="#5B5B5B" d="M 225.394531 162.171875 L 225.902344 162.171875 L 225.902344 244.644531 L 225.394531 244.644531 Z M 225.394531 162.171875"/></svg>